<svg width="64" height="64" viewBox="0 0 64 64" fill="none" xmlns="http://www.w3.org/2000/svg">
<path d="M24.439 51.6959C21.9091 49.3833 21.1706 44.5242 22.2246 41.0039C24.0522 43.2234 26.5845 43.9265 29.2074 44.3233C33.2567 44.9358 37.2334 44.7067 40.995 42.8559C41.4253 42.644 41.823 42.3623 42.2932 42.0769C42.6461 43.1009 42.738 44.1347 42.6147 45.1868C42.315 47.7493 41.0397 49.7287 39.0115 51.2292C38.2004 51.8294 37.3422 52.3659 36.5046 52.9318C33.9312 54.6711 33.2349 56.7105 34.2019 59.6769C34.2249 59.7497 34.2455 59.8219 34.2974 59.9983C32.9835 59.41 32.0238 58.5538 31.2925 57.428C30.5201 56.2401 30.1527 54.9259 30.1333 53.5038C30.1236 52.8117 30.1236 52.1135 30.0306 51.4313C29.8033 49.7679 29.0225 49.0232 27.5515 48.9803C26.0418 48.9362 24.8476 49.8695 24.5309 51.3394C24.5067 51.4521 24.4716 51.5636 24.4366 51.6946L24.439 51.6959Z" fill="#030712"/>
<path d="M24.439 51.6959C21.9091 49.3833 21.1706 44.5242 22.2246 41.0039C24.0522 43.2234 26.5845 43.9265 29.2074 44.3233C33.2567 44.9358 37.2334 44.7067 40.995 42.8559C41.4253 42.644 41.823 42.3623 42.2932 42.0769C42.6461 43.1009 42.738 44.1347 42.6147 45.1868C42.315 47.7493 41.0397 49.7287 39.0115 51.2292C38.2004 51.8294 37.3422 52.3659 36.5046 52.9318C33.9312 54.6711 33.2349 56.7105 34.2019 59.6769C34.2249 59.7497 34.2455 59.8219 34.2974 59.9983C32.9835 59.41 32.0238 58.5538 31.2925 57.428C30.5201 56.2401 30.1527 54.9259 30.1333 53.5038C30.1236 52.8117 30.1236 52.1135 30.0306 51.4313C29.8033 49.7679 29.0225 49.0232 27.5515 48.9803C26.0418 48.9362 24.8476 49.8695 24.5309 51.3394C24.5067 51.4521 24.4716 51.5636 24.4366 51.6946L24.439 51.6959Z" fill="url(#paint0_linear_6435_10106)"/>
<path d="M10 40.4192C10 40.4192 17.4914 36.7698 25.0037 36.7698L30.6677 19.2406C30.8798 18.3929 31.4989 17.8168 32.1979 17.8168C32.8969 17.8168 33.5161 18.3929 33.7281 19.2406L39.3922 36.7698C48.2894 36.7698 54.3959 40.4192 54.3959 40.4192C54.3959 40.4192 41.6711 5.75449 41.6463 5.68494C41.2811 4.66007 40.6645 4 39.8333 4H24.5639C23.7327 4 23.141 4.66007 22.7509 5.68494C22.7234 5.75318 10 40.4192 10 40.4192Z" fill="#030712"/>
<defs>
<linearGradient id="paint0_linear_6435_10106" x1="21.7598" y1="59.9983" x2="46.1878" y2="48.4564" gradientUnits="userSpaceOnUse">
<stop stop-color="#D83333"/>
<stop offset="1" stop-color="#F041FF"/>
</linearGradient>
</defs>
</svg>
