<svg width="640" height="176" viewBox="0 0 640 176" fill="none" xmlns="http://www.w3.org/2000/svg">
<path d="M0 12C0 5.37258 5.37258 0 12 0H628C634.627 0 640 5.37258 640 12V164C640 170.627 634.627 176 628 176H12C5.37259 176 0 170.627 0 164V12Z" fill="url(#paint0_linear_48_94)"/>
<path d="M226.638 81.5498C224.073 79.1957 223.325 74.2498 224.393 70.6667C226.246 72.9257 228.813 73.6416 231.472 74.0451C235.577 74.6687 239.609 74.4356 243.422 72.5517C243.858 72.3363 244.261 72.049 244.738 71.7589C245.096 72.8008 245.189 73.853 245.064 74.9241C244.76 77.5324 243.467 79.5473 241.411 81.0744C240.589 81.6854 239.719 82.2315 238.87 82.8077C236.261 84.5776 235.555 86.6535 236.535 89.6734C236.559 89.7469 236.579 89.8205 236.632 90C235.3 89.4015 234.327 88.53 233.586 87.3843C232.803 86.1747 232.43 84.8369 232.411 83.3897C232.401 82.6852 232.401 81.9744 232.307 81.2801C232.076 79.5872 231.285 78.8291 229.793 78.7853C228.263 78.7408 227.052 79.6904 226.731 81.1867C226.707 81.3012 226.671 81.4147 226.636 81.548L226.638 81.5498Z" fill="url(#paint1_linear_48_94)"/>
<path d="M212 70.0694C212 70.0694 219.594 66.3551 227.21 66.3551L232.952 48.5128C233.167 47.65 233.795 47.0635 234.503 47.0635C235.212 47.0635 235.84 47.65 236.055 48.5128L241.797 66.3551C250.816 66.3551 257.007 70.0694 257.007 70.0694C257.007 70.0694 244.107 34.7858 244.082 34.715C243.712 33.6719 243.087 33 242.244 33H226.764C225.922 33 225.322 33.6719 224.926 34.715C224.899 34.7845 212 70.0694 212 70.0694Z" fill="white"/>
<path d="M292.071 58.72C292.071 61.8466 288.198 63.7139 282.834 63.7139C279.344 63.7139 278.109 62.8454 278.109 61.0215C278.109 59.1108 279.642 58.199 283.132 58.199C286.282 58.199 288.963 58.2423 292.071 58.6332V58.72ZM292.114 54.8552C290.198 54.421 287.303 54.1604 283.856 54.1604C273.81 54.1604 269.086 56.5488 269.086 62.1072C269.086 67.8827 272.32 70.0974 279.812 70.0974C286.154 70.0974 290.453 68.4906 292.028 64.5389H292.283C292.241 65.4943 292.199 66.4496 292.199 67.1879C292.199 69.2288 292.539 69.4025 294.199 69.4025H302.031C301.605 68.1867 301.35 64.7561 301.35 61.8032C301.35 58.6332 301.477 56.2448 301.477 53.0314C301.477 46.4742 297.562 42.3054 285.303 42.3054C280.025 42.3054 274.151 43.2174 269.682 44.5635C270.107 46.3439 270.703 49.9482 271.001 52.2931C274.875 50.4693 280.365 49.6877 284.622 49.6877C290.496 49.6877 292.114 51.0338 292.114 53.7696V54.8552Z" fill="white"/>
<path d="M313.603 60.5438C312.539 60.674 311.091 60.674 309.602 60.674C308.027 60.674 306.58 60.6306 305.6 60.5003C305.6 60.8478 305.558 61.2386 305.558 61.586C305.558 67.0141 309.091 70.184 321.52 70.184C333.225 70.184 337.013 67.0575 337.013 61.5425C337.013 56.3315 334.502 53.7695 323.393 53.205C314.752 52.8141 313.986 51.8588 313.986 50.7732C313.986 49.5139 315.093 48.8625 320.881 48.8625C326.883 48.8625 328.501 49.6876 328.501 51.4246V51.8154C329.352 51.7719 330.884 51.7286 332.459 51.7286C333.949 51.7286 335.566 51.7719 336.503 51.8588C336.503 51.468 336.546 51.1206 336.546 50.8166C336.546 44.4331 331.267 42.3488 321.052 42.3488C309.559 42.3488 305.686 45.1714 305.686 50.6863C305.686 55.6368 308.793 58.7199 319.818 59.1976C327.947 59.4582 328.841 60.3701 328.841 61.6294C328.841 62.9756 327.522 63.5835 321.818 63.5835C315.263 63.5835 313.603 62.6716 313.603 60.8043V60.5438Z" fill="white"/>
<path d="M351.063 37.6591C347.956 40.5686 342.38 43.478 339.273 44.2597C339.315 45.8664 339.315 48.8193 339.315 50.426L342.167 50.4694C342.124 53.5526 342.082 57.2871 342.082 59.7623C342.082 65.5378 345.104 69.8804 354.511 69.8804C358.469 69.8804 361.108 69.4461 364.386 68.7513C364.045 66.6234 363.662 63.3666 363.534 60.8914C361.577 61.5427 359.108 61.8901 356.383 61.8901C352.595 61.8901 351.063 60.848 351.063 57.8516C351.063 55.2462 351.063 52.8143 351.105 50.5563C355.958 50.5997 360.81 50.6865 363.662 50.7734C363.619 48.5153 363.705 45.2584 363.832 43.0872C359.704 43.174 355.064 43.2175 351.233 43.2175C351.276 41.3068 351.318 39.4829 351.361 37.6591H351.063Z" fill="white"/>
<path d="M376.485 49.1232C376.527 46.8651 376.57 44.9544 376.613 43.0871H368.057C368.184 46.8217 368.184 50.6431 368.184 56.2449C368.184 61.8466 368.142 65.7115 368.057 69.4026H377.847C377.676 66.7971 377.634 62.4112 377.634 58.6766C377.634 52.7709 380.018 51.0773 385.423 51.0773C387.935 51.0773 389.723 51.3813 391.297 51.9458C391.34 49.7311 391.766 45.4321 392.021 43.5214C390.403 43.0437 388.616 42.7397 386.445 42.7397C381.805 42.6963 378.4 44.607 376.825 49.1666L376.485 49.1232Z" fill="white"/>
<path d="M419.104 56.071C419.104 60.8043 415.699 63.019 410.336 63.019C405.015 63.019 401.61 60.9346 401.61 56.071C401.61 51.2074 405.058 49.3836 410.336 49.3836C415.656 49.3836 419.104 51.3377 419.104 56.071ZM428 55.8539C428 46.4307 420.679 42.2185 410.336 42.2185C399.95 42.2185 392.885 46.4307 392.885 55.8539C392.885 65.2337 399.482 70.2712 410.293 70.2712C421.19 70.2712 428 65.2337 428 55.8539Z" fill="white"/>
<path d="M210.75 125.375C211.717 125.375 212.5 124.592 212.5 123.625V115.75C212.5 114.783 213.283 114 214.25 114H219.649L222.125 116.476C222.786 117.137 223.665 117.5 224.601 117.5H231.75C232.717 117.5 233.5 118.283 233.5 119.25V123.625C233.5 124.592 234.283 125.375 235.25 125.375C236.217 125.375 237 124.592 237 123.625V119.25C237 116.354 234.646 114 231.75 114H224.601L222.125 111.528C221.464 110.868 220.585 110.5 219.649 110.5H214.25C211.354 110.5 209 112.854 209 115.75V123.625C209 124.592 209.783 125.375 210.75 125.375Z" fill="#3B82F6"/>
<path d="M210.75 133.688H217.024L215.199 135.512C214.517 136.194 214.517 137.301 215.199 137.988C215.541 138.329 215.987 138.5 216.438 138.5C216.888 138.5 217.334 138.329 217.676 137.988L220.248 135.416C221.176 134.488 221.688 133.25 221.688 131.938C221.688 130.625 221.176 129.387 220.248 128.459L217.676 125.887C216.993 125.204 215.886 125.204 215.199 125.887C214.517 126.569 214.517 127.676 215.199 128.363L217.024 130.188H210.75C209.783 130.188 209 130.971 209 131.938C209 132.904 209.783 133.688 210.75 133.688Z" fill="#3B82F6"/>
<path d="M235.25 130.188H228.976L230.801 128.363C231.483 127.681 231.483 126.574 230.801 125.887C230.118 125.204 229.007 125.204 228.324 125.887L225.752 128.459C224.824 129.387 224.312 130.625 224.312 131.938C224.312 133.25 224.824 134.488 225.752 135.416L228.324 137.988C228.666 138.329 229.112 138.5 229.562 138.5C230.013 138.5 230.459 138.329 230.801 137.988C231.483 137.306 231.483 136.199 230.801 135.512L228.976 133.688H235.25C236.217 133.688 237 132.904 237 131.938C237 130.971 236.217 130.188 235.25 130.188Z" fill="#3B82F6"/>
<path d="M264.732 136H259.723L267.356 113.891H273.38L281.001 136H275.992L270.454 118.943H270.281L264.732 136ZM264.419 127.31H276.251V130.959H264.419V127.31ZM296.987 124.147L292.776 124.406C292.704 124.046 292.55 123.722 292.312 123.434C292.075 123.139 291.762 122.905 291.373 122.732C290.991 122.552 290.534 122.463 290.002 122.463C289.289 122.463 288.688 122.614 288.199 122.916C287.71 123.211 287.465 123.607 287.465 124.103C287.465 124.499 287.623 124.834 287.94 125.107C288.257 125.381 288.8 125.6 289.57 125.766L292.571 126.37C294.183 126.702 295.385 127.234 296.177 127.968C296.969 128.702 297.364 129.667 297.364 130.861C297.364 131.948 297.044 132.902 296.404 133.722C295.77 134.543 294.899 135.183 293.791 135.644C292.69 136.097 291.42 136.324 289.98 136.324C287.785 136.324 286.036 135.867 284.734 134.953C283.438 134.032 282.679 132.779 282.456 131.196L286.979 130.959C287.116 131.628 287.447 132.139 287.972 132.491C288.498 132.837 289.171 133.01 289.991 133.01C290.797 133.01 291.445 132.855 291.934 132.545C292.431 132.229 292.683 131.822 292.69 131.326C292.683 130.908 292.506 130.566 292.161 130.3C291.815 130.027 291.283 129.818 290.563 129.674L287.692 129.102C286.072 128.778 284.867 128.216 284.075 127.418C283.291 126.619 282.898 125.6 282.898 124.363C282.898 123.297 283.186 122.38 283.762 121.61C284.345 120.84 285.162 120.246 286.213 119.828C287.271 119.411 288.508 119.202 289.926 119.202C292.021 119.202 293.669 119.645 294.871 120.53C296.08 121.415 296.785 122.621 296.987 124.147ZM309.08 119.418V122.873H299.094V119.418H309.08ZM301.361 115.445H305.96V130.905C305.96 131.329 306.025 131.66 306.155 131.898C306.284 132.128 306.464 132.29 306.694 132.384C306.932 132.477 307.205 132.524 307.515 132.524C307.731 132.524 307.947 132.506 308.162 132.47C308.378 132.427 308.544 132.394 308.659 132.373L309.382 135.795C309.152 135.867 308.828 135.95 308.411 136.043C307.993 136.144 307.486 136.205 306.889 136.227C305.78 136.27 304.809 136.122 303.974 135.784C303.146 135.446 302.502 134.92 302.041 134.208C301.581 133.495 301.354 132.596 301.361 131.509V115.445ZM312.076 136V119.418H316.534V122.311H316.707C317.009 121.282 317.517 120.505 318.229 119.98C318.942 119.447 319.762 119.181 320.691 119.181C320.921 119.181 321.169 119.195 321.436 119.224C321.702 119.253 321.936 119.292 322.137 119.343V123.423C321.921 123.359 321.623 123.301 321.241 123.251C320.86 123.2 320.511 123.175 320.194 123.175C319.518 123.175 318.913 123.323 318.38 123.618C317.855 123.905 317.438 124.309 317.128 124.827C316.826 125.345 316.675 125.942 316.675 126.619V136H312.076ZM331.235 136.324C329.558 136.324 328.108 135.968 326.885 135.255C325.668 134.535 324.729 133.535 324.067 132.254C323.405 130.966 323.074 129.472 323.074 127.774C323.074 126.061 323.405 124.564 324.067 123.283C324.729 121.995 325.668 120.994 326.885 120.282C328.108 119.562 329.558 119.202 331.235 119.202C332.912 119.202 334.359 119.562 335.575 120.282C336.798 120.994 337.741 121.995 338.403 123.283C339.065 124.564 339.396 126.061 339.396 127.774C339.396 129.472 339.065 130.966 338.403 132.254C337.741 133.535 336.798 134.535 335.575 135.255C334.359 135.968 332.912 136.324 331.235 136.324ZM331.257 132.761C332.02 132.761 332.656 132.545 333.167 132.114C333.678 131.675 334.063 131.077 334.323 130.322C334.589 129.566 334.722 128.706 334.722 127.741C334.722 126.777 334.589 125.917 334.323 125.161C334.063 124.406 333.678 123.808 333.167 123.369C332.656 122.93 332.02 122.711 331.257 122.711C330.487 122.711 329.839 122.93 329.313 123.369C328.795 123.808 328.403 124.406 328.137 125.161C327.878 125.917 327.748 126.777 327.748 127.741C327.748 128.706 327.878 129.566 328.137 130.322C328.403 131.077 328.795 131.675 329.313 132.114C329.839 132.545 330.487 132.761 331.257 132.761ZM356.915 136.324C355.216 136.324 353.755 135.964 352.532 135.244C351.316 134.517 350.38 133.51 349.725 132.222C349.077 130.933 348.753 129.451 348.753 127.774C348.753 126.075 349.081 124.586 349.736 123.305C350.398 122.016 351.337 121.012 352.553 120.293C353.77 119.566 355.216 119.202 356.893 119.202C358.34 119.202 359.606 119.465 360.693 119.99C361.78 120.516 362.64 121.253 363.273 122.203C363.907 123.153 364.256 124.269 364.32 125.55H359.981C359.858 124.722 359.534 124.057 359.009 123.553C358.491 123.042 357.811 122.786 356.969 122.786C356.256 122.786 355.634 122.981 355.101 123.369C354.576 123.751 354.166 124.309 353.87 125.043C353.575 125.777 353.428 126.666 353.428 127.709C353.428 128.767 353.572 129.667 353.86 130.408C354.155 131.149 354.569 131.714 355.101 132.103C355.634 132.491 356.256 132.686 356.969 132.686C357.494 132.686 357.966 132.578 358.383 132.362C358.808 132.146 359.157 131.833 359.43 131.423C359.711 131.005 359.894 130.505 359.981 129.922H364.32C364.248 131.189 363.903 132.304 363.284 133.269C362.672 134.226 361.827 134.974 360.747 135.514C359.668 136.054 358.39 136.324 356.915 136.324ZM367.265 136V119.418H371.723V122.311H371.896C372.198 121.282 372.706 120.505 373.418 119.98C374.131 119.447 374.951 119.181 375.88 119.181C376.11 119.181 376.358 119.195 376.625 119.224C376.891 119.253 377.125 119.292 377.326 119.343V123.423C377.11 123.359 376.812 123.301 376.43 123.251C376.049 123.2 375.7 123.175 375.383 123.175C374.707 123.175 374.102 123.323 373.569 123.618C373.044 123.905 372.627 124.309 372.317 124.827C372.015 125.345 371.864 125.942 371.864 126.619V136H367.265ZM390.338 128.94V119.418H394.936V136H390.521V132.988H390.348C389.974 133.96 389.352 134.741 388.481 135.331C387.617 135.921 386.563 136.216 385.318 136.216C384.209 136.216 383.234 135.964 382.392 135.46C381.55 134.956 380.891 134.24 380.416 133.312C379.949 132.384 379.711 131.272 379.704 129.976V119.418H384.303V129.156C384.31 130.134 384.573 130.908 385.091 131.477C385.609 132.045 386.304 132.33 387.174 132.33C387.729 132.33 388.247 132.204 388.729 131.952C389.211 131.693 389.6 131.311 389.895 130.807C390.197 130.304 390.345 129.681 390.338 128.94ZM412.411 124.147L408.201 124.406C408.129 124.046 407.975 123.722 407.737 123.434C407.5 123.139 407.186 122.905 406.798 122.732C406.416 122.552 405.959 122.463 405.427 122.463C404.714 122.463 404.113 122.614 403.624 122.916C403.135 123.211 402.89 123.607 402.89 124.103C402.89 124.499 403.048 124.834 403.365 125.107C403.682 125.381 404.225 125.6 404.995 125.766L407.996 126.37C409.608 126.702 410.81 127.234 411.602 127.968C412.394 128.702 412.789 129.667 412.789 130.861C412.789 131.948 412.469 132.902 411.829 133.722C411.195 134.543 410.324 135.183 409.216 135.644C408.115 136.097 406.845 136.324 405.405 136.324C403.21 136.324 401.461 135.867 400.159 134.953C398.863 134.032 398.104 132.779 397.881 131.196L402.404 130.959C402.541 131.628 402.872 132.139 403.397 132.491C403.923 132.837 404.596 133.01 405.416 133.01C406.222 133.01 406.87 132.855 407.359 132.545C407.856 132.229 408.108 131.822 408.115 131.326C408.108 130.908 407.931 130.566 407.586 130.3C407.24 130.027 406.708 129.818 405.988 129.674L403.117 129.102C401.497 128.778 400.292 128.216 399.5 127.418C398.716 126.619 398.323 125.6 398.323 124.363C398.323 123.297 398.611 122.38 399.187 121.61C399.77 120.84 400.587 120.246 401.638 119.828C402.696 119.411 403.933 119.202 405.351 119.202C407.446 119.202 409.094 119.645 410.296 120.53C411.505 121.415 412.21 122.621 412.411 124.147ZM420.284 126.414V136H415.685V113.891H420.155V122.344H420.349C420.723 121.365 421.328 120.598 422.162 120.044C422.997 119.483 424.044 119.202 425.304 119.202C426.455 119.202 427.459 119.454 428.316 119.958C429.18 120.455 429.849 121.171 430.324 122.106C430.806 123.035 431.044 124.147 431.036 125.442V136H426.437V126.263C426.445 125.241 426.186 124.445 425.66 123.877C425.142 123.308 424.415 123.024 423.48 123.024C422.853 123.024 422.299 123.157 421.817 123.423C421.342 123.69 420.968 124.078 420.694 124.589C420.428 125.093 420.291 125.701 420.284 126.414Z" fill="white"/>
<defs>
<linearGradient id="paint0_linear_48_94" x1="0" y1="0" x2="604.091" y2="259.57" gradientUnits="userSpaceOnUse">
<stop stop-color="#171717"/>
<stop offset="1" stop-color="#262626"/>
</linearGradient>
<linearGradient id="paint1_linear_48_94" x1="223.922" y1="90" x2="248.723" y2="78.3295" gradientUnits="userSpaceOnUse">
<stop stop-color="#D83333"/>
<stop offset="1" stop-color="#F041FF"/>
</linearGradient>
</defs>
</svg>
